<!DOCTYPE svg PUBLIC "-//W3C//DTD SVG 1.1//EN" "http://www.w3.org/Graphics/SVG/1.1/DTD/svg11.dtd">
<!-- Uploaded to: SVG Repo, www.svgrepo.com, Transformed by: SVG Repo Mixer Tools -->
<svg fill="#cc0000" height="183px" width="183px" version="1.1" id="Layer_1" xmlns="http://www.w3.org/2000/svg" xmlns:xlink="http://www.w3.org/1999/xlink" viewBox="-58.81 -58.81 343.81 343.81" xml:space="preserve" stroke="#cc0000" stroke-width="0.00226194">
<g id="SVGRepo_bgCarrier" stroke-width="0"/>
<g id="SVGRepo_tracerCarrier" stroke-linecap="round" stroke-linejoin="round"/>
<g id="SVGRepo_iconCarrier"> <g> <g> <g> <path d="M116.157,1.334c-1.535-1.779-4.585-1.779-6.12,0c-3.34,3.875-81.789,95.425-81.789,140.67 c0,46.423,38.062,84.19,84.849,84.19s84.849-37.766,84.849-84.189C197.946,96.759,119.497,5.208,116.157,1.334z M113.097,218.113 c-42.33,0-76.768-34.142-76.768-76.109c0-37.469,62.121-114.197,76.768-131.763c14.646,17.566,76.768,94.295,76.768,131.763 C189.865,183.971,155.427,218.113,113.097,218.113z"/> <path d="M125.218,100.941h-24.241v24.242H76.734v24.242h24.242v24.242h24.242v-24.242h24.242v-24.242h-24.242V100.941z M141.38,133.264v8.081h-24.242v24.242h-8.081v-24.242H84.815v-8.081h24.242v-24.242h8.081v24.242H141.38z"/> <path d="M134.641,52.235c-1.239-1.859-3.746-2.362-5.603-1.12c-1.857,1.237-2.358,3.746-1.12,5.603l24.242,36.364 c0.779,1.168,2.06,1.799,3.366,1.799c0.769,0,1.549-0.219,2.237-0.679c1.857-1.237,2.358-3.746,1.12-5.603L134.641,52.235z"/> </g> </g> </g> </g>
</svg>